<svg width="18" height="18" viewBox="0 0 18 18" fill="none" xmlns="http://www.w3.org/2000/svg">
<path d="M6.86632 15.8517C6.86628 15.8564 6.86597 15.8611 6.86597 15.8658C6.86597 17.0445 7.82147 18 9.00014 18C10.1788 18 11.1343 17.0445 11.1343 15.8658C11.1343 15.8611 11.134 15.8564 11.134 15.8517H6.86632Z" fill="#767676"/>
<path d="M15.814 13.1841L13.8933 10.3625C13.8933 9.49877 13.8933 7.38827 13.8933 6.84232C13.8933 4.46832 12.2026 2.48944 9.9596 2.04349V0.959498C9.95956 0.429609 9.52999 0 9.00007 0C8.47014 0 8.04057 0.429609 8.04057 0.959498V2.04353C5.79761 2.48952 4.10692 4.4684 4.10692 6.84235C4.10692 7.77172 4.10692 9.82387 4.10692 10.3625L2.18616 13.1841C1.98384 13.4813 1.96244 13.866 2.13055 14.1838C2.29867 14.5016 2.6287 14.7004 2.98824 14.7004H15.0119C15.3714 14.7004 15.7015 14.5016 15.8696 14.1838C16.0377 13.8659 16.0163 13.4812 15.814 13.1841Z" fill="#767676"/>
</svg>
