<svg width="32" height="19" viewBox="0 0 32 19" fill="none" xmlns="http://www.w3.org/2000/svg">
<path d="M30.4776 6.97336H29.5836V6.23581C29.5836 4.70385 28.467 3.42843 27.005 3.17867V3.10225C27.005 1.39173 25.6133 0 23.9027 0C22.1921 0 20.8004 1.39173 20.8004 3.10225V6.97336H10.2008V3.10231C10.2008 1.39179 8.8091 6.09782e-05 7.09852 6.09782e-05C5.38793 6.09782e-05 3.9962 1.39179 3.9962 3.10231V3.17873C2.53418 3.42849 1.41758 4.70385 1.41758 6.23587V6.97342H0.523692C0.234448 6.97342 0 7.20787 0 7.49711V11.5029C0 11.7923 0.234448 12.0266 0.523692 12.0266H1.41771V12.7642C1.41771 14.2962 2.5343 15.5716 3.99633 15.8213V15.8977C3.99633 17.6083 5.38805 19 7.09864 19C8.80922 19 10.201 17.6083 10.201 15.8977V12.0266H20.8006V15.8977C20.8006 17.6083 22.1923 19 23.9029 19C25.6135 19 27.0052 17.6083 27.0052 15.8977V15.8213C28.4672 15.5716 29.5838 14.2962 29.5838 12.7642V12.0266H30.4778C30.7671 12.0266 31.0015 11.7922 31.0015 11.5029V7.49711C31.0013 7.20781 30.7669 6.97336 30.4776 6.97336ZM1.41771 10.9793H1.04745V8.02081H1.41771V10.9793ZM3.9962 14.7512C3.11606 14.519 2.46497 13.7163 2.46497 12.7642V6.23575C2.46497 5.28367 3.11594 4.48096 3.9962 4.24876V14.7512ZM9.15345 15.8977C9.15345 17.0308 8.23158 17.9526 7.09852 17.9526C5.96545 17.9526 5.04359 17.0308 5.04359 15.8977V3.10225C5.04359 1.96919 5.96545 1.04738 7.09852 1.04738C8.23158 1.04738 9.15345 1.96919 9.15345 3.10225V15.8977ZM11.1366 10.9793H10.2008V8.02081H11.1366V10.9793ZM18.8174 10.9793H12.1839V8.02081H18.8174V10.9793ZM20.8005 10.9793H19.8648V8.02081H20.8005V10.9793ZM25.9576 15.8977C25.9576 17.0308 25.0358 17.9526 23.9027 17.9526C22.7696 17.9526 21.8478 17.0308 21.8478 15.8977V3.10225C21.8478 1.96919 22.7696 1.04738 23.9027 1.04738C25.0358 1.04738 25.9576 1.96919 25.9576 3.10225V15.8977ZM28.5362 12.7642C28.5362 13.7163 27.8853 14.519 27.005 14.7512V4.24876C27.8851 4.4809 28.5362 5.28367 28.5362 6.23575V12.7642ZM29.9539 10.9793H29.5837V8.02081H29.9539V10.9793Z" fill="white"/>
</svg>
