<svg width="47" height="20" viewBox="0 0 47 20" fill="none" xmlns="http://www.w3.org/2000/svg">
<rect width="47" height="20" rx="8" fill="black" fill-opacity="0.7"/>
<path d="M12.7598 14H11.3418V7.15039L9.25 7.86523V6.66406L12.5781 5.43945H12.7598V14ZM19.5801 14H18.1621V7.15039L16.0703 7.86523V6.66406L19.3984 5.43945H19.5801V14ZM23.4941 12.5C23.7598 12.5 23.9648 12.5762 24.1094 12.7285C24.2539 12.877 24.3262 13.0645 24.3262 13.291C24.3262 13.5137 24.2539 13.6992 24.1094 13.8477C23.9648 13.9922 23.7598 14.0645 23.4941 14.0645C23.2402 14.0645 23.0391 13.9922 22.8906 13.8477C22.7422 13.7031 22.668 13.5176 22.668 13.291C22.668 13.0645 22.7402 12.877 22.8848 12.7285C23.0293 12.5762 23.2324 12.5 23.4941 12.5ZM23.4941 7.52539C23.7598 7.52539 23.9648 7.60156 24.1094 7.75391C24.2539 7.90234 24.3262 8.08984 24.3262 8.31641C24.3262 8.53906 24.2539 8.72461 24.1094 8.87305C23.9648 9.01758 23.7598 9.08984 23.4941 9.08984C23.2402 9.08984 23.0391 9.01758 22.8906 8.87305C22.7422 8.72852 22.668 8.54297 22.668 8.31641C22.668 8.08984 22.7402 7.90234 22.8848 7.75391C23.0293 7.60156 23.2324 7.52539 23.4941 7.52539ZM27.3789 9.08398H28.2461C28.6836 9.08008 29.0293 8.9668 29.2832 8.74414C29.541 8.52148 29.6699 8.19922 29.6699 7.77734C29.6699 7.37109 29.5625 7.05664 29.3477 6.83398C29.1367 6.60742 28.8125 6.49414 28.375 6.49414C27.9922 6.49414 27.6777 6.60547 27.4316 6.82812C27.1855 7.04688 27.0625 7.33398 27.0625 7.68945H25.6387C25.6387 7.25195 25.7539 6.85352 25.9844 6.49414C26.2188 6.13477 26.543 5.85547 26.957 5.65625C27.375 5.45312 27.8418 5.35156 28.3574 5.35156C29.209 5.35156 29.877 5.56641 30.3613 5.99609C30.8496 6.42188 31.0938 7.01562 31.0938 7.77734C31.0938 8.16016 30.9707 8.52148 30.7246 8.86133C30.4824 9.19727 30.168 9.45117 29.7812 9.62305C30.25 9.7832 30.6055 10.0352 30.8477 10.3789C31.0938 10.7227 31.2168 11.1328 31.2168 11.6094C31.2168 12.375 30.9531 12.9844 30.4258 13.4375C29.9023 13.8906 29.2129 14.1172 28.3574 14.1172C27.5371 14.1172 26.8652 13.8984 26.3418 13.4609C25.8184 13.0234 25.5566 12.4414 25.5566 11.7148H26.9805C26.9805 12.0898 27.1055 12.3945 27.3555 12.6289C27.6094 12.8633 27.9492 12.9805 28.375 12.9805C28.8164 12.9805 29.1641 12.8633 29.418 12.6289C29.6719 12.3945 29.7988 12.0547 29.7988 11.6094C29.7988 11.1602 29.666 10.8145 29.4004 10.5723C29.1348 10.3301 28.7402 10.209 28.2168 10.209H27.3789V9.08398ZM37.3691 10.959H38.4297V12.1016H37.3691V14H35.9453V12.1016H32.2598L32.2188 11.2344L35.8984 5.46875H37.3691V10.959ZM33.7129 10.959H35.9453V7.39648L35.8398 7.58398L33.7129 10.959Z" fill="white"/>
</svg>
